<svg id="Capa_1" enable-background="new 0 0 512 512" height="512" viewBox="0 0 512 512" width="512" xmlns="http://www.w3.org/2000/svg"><g><g><path d="m502.44 229.09-98.546 143.9-129.394-29.49h-37l-142.543 11.18-85.257-125.76c1.48-2.92 3.68-5.47 6.45-7.38l222.73-153.47h38.39l218.72 153.46c2.8 1.96 5 4.58 6.45 7.56z" fill="#ffbd86"/><path d="m99.043 391.024-8-371.854c0-5.523 4.477-10 10-10l6.957-1.67h308c5.523 0 10 4.477 10 10v242.24l-9 27.005 9 104.279z" fill="#f9f7f8"/><path d="m377 112.5h-242c-2.209 0-4-1.791-4-4v-52c0-2.209 1.791-4 4-4h242c2.209 0 4 1.791 4 4v52c0 2.209-1.791 4-4 4z" fill="#ffe564"/><path d="m353.74 312.05c-2.29 1.66-5.47 1.07-7.07-1.26-19.85-28.84-53.09-47.79-90.67-47.79-37.55 0-70.76 18.92-90.62 47.72-1.6 2.32-4.78 2.9-7.07 1.25l-47.832-34.682c-1.557-1.129-2.478-2.935-2.478-4.857v-264.931h-12c-5.523 0-10 4.477-10 10v242.04 131.48h22 318v-131.28z" fill="#eae8ea"/><path d="m201.99 368.34-189.35 132.45c-3.15-2.74 1.466-13.81 1.466-18.31l-2.212-239.98c0-3.21-3.624-10.81-2.194-13.58z" fill="#fed2a4"/><path d="m504.5 237.9v239.44l-8.819 11.277 3.809 12.063-189.41-132.33 192.36-139.26c1.34 2.7 2.06 5.71 2.06 8.81z" fill="#fed2a4"/><path d="m504.5 477.34v12.16c0 4.44-1.93 8.43-5.01 11.18l-102.235-48.829-87.175-83.501 18.87-13.66z" fill="#ffbd86"/><path d="m183.14 354.68-147.347 103.069c-2.651 1.855-6.293-.042-6.293-3.278v-211.191l-2.968-10.663-16.832-3.697c-1.43 2.77-2.2 5.88-2.2 9.09v239.53 11.96c0 4.5 1.99 8.55 5.14 11.29l100.7-54.045 88.65-78.405z" fill="#ffbd86"/><path d="m494.467 497.171s-12.18-1.234-16.02-1.234l-441.702 2.723c-3.78 0-24.105 2.13-24.105 2.13l189.35-132.45 35.51-24.84h37l35.58 24.85z" fill="#fed2a4"/><path d="m499.49 500.68c-2.65 2.38-6.15 3.82-9.99 3.82h-467c-3.78 0-7.23-1.4-9.86-3.71l5.977-15.365 20.203-2.946c.22.01.45.02.68.02h433.97l14.807-2.691z" fill="#ffbd86"/><circle cx="256" cy="373" fill="#ffe564" r="90"/></g><g><path d="m500.295 215.388-66.795-46.866v-37.076c0-4.142-3.357-7.5-7.5-7.5s-7.5 3.358-7.5 7.5v149.156l-73.297 53.061c-15.151-34.223-49.431-58.163-89.203-58.163-39.741 0-74 23.903-89.168 58.085l-73.332-53.169v-262.916c0-1.378 1.121-2.5 2.5-2.5h320c1.379 0 2.5 1.122 2.5 2.5v78.947c0 4.142 3.357 7.5 7.5 7.5s7.5-3.358 7.5-7.5v-78.947c0-9.649-7.851-17.5-17.5-17.5h-320c-9.649 0-17.5 7.851-17.5 17.5v151.969l-66.604 45.893c-7.449 5.134-11.896 13.599-11.896 22.645v128.057c0 4.142 3.357 7.5 7.5 7.5s7.5-3.358 7.5-7.5v-124.038l146.657 106.334c-3.176 12.057-4.138 26.464-1.883 40.361l-144.75 101.259c-.01-.16-.024-.318-.024-.48v-88.436c0-4.142-3.357-7.5-7.5-7.5s-7.5 3.358-7.5 7.5v88.436c0 12.407 10.094 22.5 22.5 22.5h467c12.406 0 22.5-10.093 22.5-22.5v-251.601c0-8.954-4.376-17.369-11.705-22.511zm-421.795 54.152-57.884-41.969 57.884-39.885zm355-82.693 58.151 40.8-58.151 42.097zm63.5 55.446v247.207c0 .097-.011.191-.015.286l-144.763-101.136c2.018-11.679 1.633-27.266-1.855-40.205zm-241 228.207c14.135 0 27.772-2.961 40.533-8.8 3.767-1.724 5.422-6.174 3.699-9.941-1.725-3.766-6.173-5.423-9.941-3.699-10.788 4.937-22.325 7.44-34.291 7.44-45.49 0-82.5-37.009-82.5-82.5s37.01-82.5 82.5-82.5 82.5 37.009 82.5 82.5c0 21.007-7.899 41.02-22.243 56.351-2.83 3.025-2.672 7.771.353 10.601 3.025 2.831 7.771 2.671 10.601-.353 9.606-10.267 16.761-22.313 21.163-35.34l132.746 92.741h-449.962l132.499-92.69c13.072 38.45 49.529 66.19 92.343 66.19z"/><path d="m205.511 60c4.143 0 7.5-3.358 7.5-7.5s-3.357-7.5-7.5-7.5h-74.511c-4.143 0-7.5 3.358-7.5 7.5v60c0 4.142 3.357 7.5 7.5 7.5h250c4.143 0 7.5-3.358 7.5-7.5v-60c0-4.142-3.357-7.5-7.5-7.5h-140.489c-4.143 0-7.5 3.358-7.5 7.5s3.357 7.5 7.5 7.5h132.989v45h-235v-45z"/><path d="m359 142.5c0-4.142-3.357-7.5-7.5-7.5h-190c-4.143 0-7.5 3.358-7.5 7.5s3.357 7.5 7.5 7.5h190c4.143 0 7.5-3.358 7.5-7.5z"/><path d="m196.5 175c-4.143 0-7.5 3.358-7.5 7.5s3.357 7.5 7.5 7.5h120c4.143 0 7.5-3.358 7.5-7.5s-3.357-7.5-7.5-7.5z"/><path d="m381.5 205h-250c-4.143 0-7.5 3.358-7.5 7.5s3.357 7.5 7.5 7.5h250c4.143 0 7.5-3.358 7.5-7.5s-3.357-7.5-7.5-7.5z"/><path d="m381.5 235h-250c-4.143 0-7.5 3.358-7.5 7.5s3.357 7.5 7.5 7.5h250c4.143 0 7.5-3.358 7.5-7.5s-3.357-7.5-7.5-7.5z"/><path d="m317.713 393.796c5.826-14.646 6.87-27 3.386-40.054-4.85-16.685-17.187-32.156-33.233-40.452-16.119-8.49-34.565-10.121-51.944-4.588-16.465 5.241-30.163 16.541-38.57 31.815-8.409 15.28-10.621 32.897-6.226 49.606 7.583 28.836 33.66 49.551 63.415 50.374.07.002.141.003.211.003 4.046 0 7.381-3.223 7.493-7.292.114-4.141-3.149-7.59-7.29-7.705-23.14-.64-43.423-16.757-49.323-39.194-7.106-27.021 8.197-54.832 34.84-63.313 13.52-4.303 27.868-3.035 40.405 3.567 12.504 6.585 21.649 17.65 25.761 31.164 2.596 9.823 1.738 18.961-2.862 30.527-1.238 3.116-5.495 10.363-13.931 10.363-2.811 0-5.654-3.03-5.654-7.294 0-11.031.198-33.836.261-44.632.024-4.142-3.314-7.52-7.456-7.544-.016 0-.029 0-.045 0-2.209 0-4.192.963-5.565 2.486-4.919-3.964-10.989-6.219-17.771-6.219-16.028 0-32.606 13.82-32.606 36.948 0 21.077 14.341 38.224 31.969 38.224 7.294 0 13.927-2.915 19.196-7.857.998 1.781 2.226 3.43 3.67 4.881 3.854 3.874 8.827 6.006 14.003 6.006 14.735 0 24.057-10.239 27.866-19.82zm-64.738 1.789c-8.161 0-16.969-8.879-16.969-23.224 0-13.738 8.952-21.948 17.606-21.948 9.208 0 15.645 8.891 15.689 21.635.265 11.897-7.4 23.63-16.326 23.537z"/></g></g></svg>